<?xml version="1.0" encoding="UTF-8"?><svg width="82px" height="66px" viewBox="0 0 82 66" version="1.1" xmlns="http://www.w3.org/2000/svg" xmlns:xlink="http://www.w3.org/1999/xlink"><title>es</title><desc>Created with Sketch.</desc><g id="es" stroke="none" stroke-width="1" fill="none" fill-rule="evenodd"><g id="Group" transform="translate(6.000000, 6.000000)"><path d="M12.5630375,-2 L57.4369625,-2 C61.7216934,-2 63.7854081,-1.60147832 65.9297417,-0.45467615 C67.8753157,0.5858282 69.4141718,2.12468434 70.4546762,4.07025832 C71.6014783,6.21459194 72,8.27830658 72,12.5630375 L72,41.4369625 C72,45.7216934 71.6014783,47.7854081 70.4546762,49.9297417 C69.4141718,51.8753157 67.8753157,53.4141718 65.9297417,54.4546762 C63.7854081,55.6014783 61.7216934,56 57.4369625,56 L12.5630375,56 C8.27830658,56 6.21459194,55.6014783 4.07025832,54.4546762 C2.12468434,53.4141718 0.5858282,51.8753157 -0.45467615,49.9297417 C-1.60147832,47.7854081 -2,45.7216934 -2,41.4369625 L-2,12.5630375 C-2,8.27830658 -1.60147832,6.21459194 -0.45467615,4.07025832 C0.5858282,2.12468434 2.12468434,0.5858282 4.07025832,-0.45467615 C6.21459194,-1.60147832 8.27830658,-2 12.5630375,-2 Z" id="Rectangle-3" stroke="#FFFFFF" stroke-width="4" fill="#FF4B4B"/><polygon id="Rectangle-4" fill="#FFC800" points="0 15.4285714 70 15.4285714 70 38.5714286 0 38.5714286"/><path d="M27.2222222,21.2142857 C28.2961092,21.2142857 29.1666667,22.0848431 29.1666667,23.1587302 L29.1666667,30.8412698 C29.1666667,31.9151569 28.2961092,32.7857143 27.2222222,32.7857143 C26.1483352,32.7857143 25.2777778,31.9151569 25.2777778,30.8412698 L25.2777778,23.1587302 C25.2777778,22.0848431 26.1483352,21.2142857 27.2222222,21.2142857 Z" id="Rectangle-14" fill="#FFFFFF"/><path d="M7.77777778,21.2142857 C8.85166479,21.2142857 9.72222222,22.0848431 9.72222222,23.1587302 L9.72222222,30.8412698 C9.72222222,31.9151569 8.85166479,32.7857143 7.77777778,32.7857143 C6.70389076,32.7857143 5.83333333,31.9151569 5.83333333,30.8412698 L5.83333333,23.1587302 C5.83333333,22.0848431 6.70389076,21.2142857 7.77777778,21.2142857 Z" id="Rectangle-14-Copy" fill="#FFFFFF"/><path d="M13.4166667,19.2857143 L21.5833333,19.2857143 C22.5498316,19.2857143 23.3333333,20.069216 23.3333333,21.0357143 L23.3333333,28.8809524 C23.3333333,32.1026134 20.721661,34.7142857 17.5,34.7142857 C14.278339,34.7142857 11.6666667,32.1026134 11.6666667,28.8809524 L11.6666667,21.0357143 C11.6666667,20.069216 12.4501684,19.2857143 13.4166667,19.2857143 Z" id="Rectangle-15" fill="#FF4B4B"/></g></g></svg>