<?xml version="1.0" encoding="UTF-8"?><svg width="82px" height="66px" viewBox="0 0 82 66" version="1.1" xmlns="http://www.w3.org/2000/svg" xmlns:xlink="http://www.w3.org/1999/xlink"><title>ja</title><desc>Created with Sketch.</desc><g id="ja" stroke="none" stroke-width="1" fill="none" fill-rule="evenodd"><g id="Group" transform="translate(6.000000, 6.000000)"><path d="M12.5630373,-2 L57.4369627,-2 C61.7216935,-2 63.7854082,-1.60147833 65.9297418,-0.45467617 C67.8753157,0.585828168 69.4141718,2.12468429 70.4546762,4.07025825 C71.6014783,6.21459184 72,8.27830645 72,12.5630373 L72,41.4369627 C72,45.7216935 71.6014783,47.7854082 70.4546762,49.9297418 C69.4141718,51.8753157 67.8753157,53.4141718 65.9297418,54.4546762 C63.7854082,55.6014783 61.7216935,56 57.4369627,56 L12.5630373,56 C8.27830645,56 6.21459184,55.6014783 4.07025825,54.4546762 C2.12468429,53.4141718 0.585828168,51.8753157 -0.45467617,49.9297418 C-1.60147833,47.7854082 -2,45.7216935 -2,41.4369627 L-2,12.5630373 C-2,8.27830645 -1.60147833,6.21459184 -0.45467617,4.07025825 C0.585828168,2.12468429 2.12468429,0.585828168 4.07025825,-0.45467617 C6.21459184,-1.60147833 8.27830645,-2 12.5630373,-2 Z" id="Rectangle-3" stroke="#FFFFFF" stroke-width="4" fill="#EEEEEE"/><circle id="Oval-19" fill="#FF4B4B" fill-rule="nonzero" cx="35" cy="27" r="14"/></g></g></svg>