<?xml version="1.0" encoding="UTF-8"?><svg width="212px" height="212px" viewBox="0 0 212 212" version="1.1" xmlns="http://www.w3.org/2000/svg" xmlns:xlink="http://www.w3.org/1999/xlink"><title>ant</title><desc>Created with Sketch.</desc><g id="ant" stroke="none" stroke-width="1" fill="none" fill-rule="evenodd"><g id="Group-2" transform="translate(37.000000, 32.000000)"><polyline id="Path-43" stroke="#EA2B2B" stroke-width="10" stroke-linecap="round" stroke-linejoin="round" points="57.6911196 56.1211564 33 36.4422018 33 0.904761905"/><polyline id="Path-44" stroke="#EA2B2B" stroke-width="10" stroke-linecap="round" stroke-linejoin="round" points="57.0321222 72.3382536 29.8567528 51.0886128 0.708695883 51.0886128"/><polyline id="Path-45" stroke="#EA2B2B" stroke-width="10" stroke-linecap="round" stroke-linejoin="round" points="58.0528172 73.0970821 33.3612025 71.3930209 13.8326937 97"/><g id="Group" transform="translate(107.000000, 49.000000) scale(-1, 1) translate(-107.000000, -49.000000) translate(77.000000, 0.000000)" stroke="#EA2B2B" stroke-linecap="round" stroke-linejoin="round" stroke-width="10"><polyline id="Path-43" points="57.6911196 55.2163945 33 35.5374399 33 0"/><polyline id="Path-44" points="57.0321222 71.4334917 29.8567528 50.1838509 0.708695883 50.1838509"/><polyline id="Path-45" points="59.0528172 73.1923202 34.3612025 71.488259 14.8326937 97.0952381"/></g><rect id="Rectangle-Copy" fill="#EA2B2B" x="37" y="74" width="62" height="79" rx="31"/><path d="M59.7352941,4.45 C59.7352941,9.61386241 63.9062884,13.8 69.0514706,13.8 C74.1966528,13.8 78.3676471,9.61386241 78.3676471,4.45" id="Path" stroke="#EA2B2B" stroke-width="7.2" stroke-linecap="round" stroke-linejoin="round"/><rect id="Rectangle" fill="#EA2B2B" x="44" y="11" width="48" height="36" rx="18"/><rect id="Rectangle" fill="#EA2B2B" x="57" y="38" width="21" height="41" rx="10.5"/><rect id="Rectangle" fill="#FF4B4B" x="62" y="50" width="12" height="10" rx="5"/><rect id="Rectangle-Copy-2" fill="#FF4B4B" x="59" y="83" width="18" height="13" rx="6.5"/></g></g></svg>