<svg width="24" height="24" viewBox="0 0 25 24" fill="none" xmlns="http://www.w3.org/2000/svg"><g clip-path="url(#clip0_4085_27151)"><path fill-rule="evenodd" clip-rule="evenodd" d="M22.1018 0.339348C23.2064 0.339337 24.1018 1.23481 24.1018 2.33941L24.1016 9.89327C24.1015 10.4456 23.6538 10.8933 23.1015 10.8932C22.5492 10.8932 22.1015 10.4455 22.1016 9.8932L22.1017 4.05966L12.2818 13.8796C11.8913 14.2701 11.2581 14.2701 10.8676 13.8796C10.4771 13.4891 10.4771 12.8559 10.8676 12.4654L20.9936 2.33936L15.0481 2.33942C14.4958 2.33942 14.0481 1.89171 14.0481 1.33943C14.0481 0.787144 14.4958 0.339424 15.0481 0.339418L22.1018 0.339348ZM3.72968 2.89216C2.91145 2.89216 2.12673 3.2172 1.54815 3.79578C0.969572 4.37436 0.644531 5.15908 0.644531 5.97731V20.5733C0.644531 21.3916 0.969573 22.1763 1.54815 22.7549C2.12673 23.3334 2.91145 23.6585 3.72968 23.6585H18.3257C19.1439 23.6585 19.9287 23.3334 20.5072 22.7549C21.0858 22.1763 21.4108 21.3916 21.4108 20.5733V15.9562C21.4108 15.4039 20.9631 14.9562 20.4108 14.9562C19.8586 14.9562 19.4108 15.4039 19.4108 15.9562V20.5733C19.4108 20.8611 19.2965 21.1371 19.093 21.3406C18.8895 21.5442 18.6135 21.6585 18.3257 21.6585H3.72968C3.44188 21.6585 3.16587 21.5442 2.96236 21.3406C2.75886 21.1371 2.64453 20.8611 2.64453 20.5733V5.97731C2.64453 5.68951 2.75886 5.4135 2.96236 5.21C3.16587 5.00649 3.44188 4.89216 3.72968 4.89216H8.34679C8.89907 4.89216 9.34679 4.44445 9.34679 3.89216C9.34679 3.33988 8.89907 2.89216 8.34679 2.89216H3.72968Z" fill="#4b4b4b"/></g><defs><clipPath id="clip0_4085_27151"><rect width="24" height="24" fill="white" transform="translate(0.302734 -0.00105286)"/></clipPath></defs></svg>