<svg xmlns="http://www.w3.org/2000/svg" viewBox="0 0 701.77 100.1"><defs><style>.cls-1{fill:#58cc02;}</style></defs><g id="Layer_2" data-name="Layer 2"><g id="Duolingo_Jeeves_portrait_green_RGB"><g id="Duolingo"><path class="cls-1" d="M40.7,50c0-7.7-5.4-12.8-12.2-12.8S16.1,42.3,16.1,50s5.4,12.8,12.3,12.8S40.7,57.8,40.7,50ZM56.3,4.1V72.5c0,2.4-1.2,3.5-3,3.5-2.7,0-6.5-2.3-9.2-6.3C40.8,73.5,34,77,26.2,77,10.5,77,0,65.5,0,50S10.8,23,26.2,23a26.25,26.25,0,0,1,14.5,4.4V20.2C40.7,7.7,47.8.6,53.5.6,55.3.6,56.3,1.8,56.3,4.1Zm63.3,26.2V72.5c0,2.4-1.2,3.5-3,3.5-2.7,0-6.5-2.3-9.2-6.5a21.57,21.57,0,0,1-16.7,7.4,23.55,23.55,0,0,1-16.3-6c-4.7-4.5-7.2-11.4-7.2-21.4V30.3c0-3.6,1.4-5.3,5.3-5.3h5.3c3.9,0,5.3,1.5,5.3,5.3V48c0,6,1.1,9.2,3,11.3A9.33,9.33,0,0,0,93.2,62a10,10,0,0,0,7.5-3.2c1.9-2.1,3-5.4,3-10.5v-18c0-3.8,1.7-5.3,5.3-5.3h5.3C117.9,25,119.6,26.5,119.6,30.3ZM167.8,50c0-7.4-4.7-12.8-12-12.8s-12,5.4-12,12.8,4.7,12.8,12,12.8S167.8,57.5,167.8,50Zm-40.1,0c0-15.8,12-27,28-27s28,11.1,28,27-12,27-28,27S127.7,65.7,127.7,50Zm65.1,19.9V20.2C192.8,7.7,199.7.6,205.6.6c1.8,0,3,1.2,3,3.5V69.9c0,3.8-1.5,5.1-5.3,5.1H198C194.4,75,192.8,73.6,192.8,69.9Zm27.8,0V30.3c0-3.6,1.4-5.3,5.3-5.3h5.3c3.9,0,5.3,1.5,5.3,5.3V69.9c0,3.6-1.4,5.1-5.3,5.1h-5.3C222,75,220.6,73.5,220.6,69.9Zm-1-61.3A8.75,8.75,0,0,1,228.3,0h.3a8.57,8.57,0,0,1,8,9,8.64,8.64,0,0,1-9,8A8.24,8.24,0,0,1,219.6,8.6Zm82.2,42.5V69.9c0,3.6-1.4,5.1-5.3,5.1h-5.3c-3.9,0-5.3-1.5-5.3-5.1V51.5c0-4.7-.8-8-2.4-10.1a10,10,0,0,0-8-3.5,10.42,10.42,0,0,0-8.3,3.5c-1.8,2.1-3,5.4-3,9.9V69.7c0,3.8-1.7,5.1-5.3,5.1h-5.3c-3.6,0-5.3-1.4-5.3-5.1V27.6c0-2.4,1.2-3.5,3-3.5,2.7,0,6.5,2.3,9.3,6.6a23,23,0,0,1,17-7.5c7.7,0,13.9,2.7,17.9,7.2C299.8,34.9,301.8,41.1,301.8,51.1Zm25.3-5.9a9.71,9.71,0,0,0,19.4,0c0-5.4-3.9-9.2-9.6-9.2S327.1,39.6,327.1,45.2ZM348.9,77c0-6-4.7-10.2-12-10.2s-12,4.1-12,10.2c0,5.7,5.1,10.2,12,10.2S348.9,82.7,348.9,77Zm11.3-39.5a14.41,14.41,0,0,1,1.5,6.8c0,5.7-3,11-7.8,15.1,6.6,3.2,10.5,10.8,10.5,18.1,0,13.6-11,22.6-27.7,22.6S309,91.1,309,77.4a20.09,20.09,0,0,1,10.5-18.1c-5-4.1-7.8-9.3-7.8-15.1,0-11.9,9.3-20.6,24.1-20.6,8.7,0,11.3,1.5,16.3,1.5a16.38,16.38,0,0,0,9.6-2.6,6.82,6.82,0,0,1,3.3-1.1c2,0,3,2,3,4.4A11.19,11.19,0,0,1,360.2,37.5ZM411,50c0-7.4-4.7-12.8-12-12.8S387,42.6,387,50s4.7,12.8,12,12.8S411,57.5,411,50Zm-40.2,0c0-15.8,12-27,28-27s28,11.1,28,27-12,27-28,27S370.8,65.7,370.8,50Z"/></g><g id="Jeeves"><path class="cls-1" d="M453.75,29.65c0-2.81,1.81-4.52,4.22-4.52s4.22,1.71,4.22,4.52V77.39c0,10.25-4.62,14.47-13.87,14.47A3.92,3.92,0,0,1,448,84c4.42-.4,5.73-1.61,5.73-6.53Zm-1.31-19.19a5.53,5.53,0,1,1,11.05,0,5.53,5.53,0,1,1-11.05,0Z"/><path class="cls-1" d="M474.35,61.81c-1-3-1.61-6.43-1.61-12.16s.5-9.14,1.51-12.16c2.71-8.34,9.64-13,18.79-13,9.45,0,16.28,4.62,18.89,12.86a35.35,35.35,0,0,1,1.61,11.66,3.08,3.08,0,0,1-3.32,3.21H482a.54.54,0,0,0-.61.61,17.61,17.61,0,0,0,.81,5.83C484,64.22,488.42,67,494.35,67c4.72,0,7.94-1.41,11.55-4.12a4.57,4.57,0,0,1,2.92-1.21,3.43,3.43,0,0,1,3.51,3.52,4.18,4.18,0,0,1-1.3,3,24.82,24.82,0,0,1-17.29,6.64C483.79,74.88,477.06,70.25,474.35,61.81Zm29.94-16.28a.53.53,0,0,0,.61-.6,16.75,16.75,0,0,0-.71-5.43c-1.6-4.82-5.62-7.54-11.05-7.54s-9.45,2.72-11.05,7.54a16.75,16.75,0,0,0-.71,5.43.53.53,0,0,0,.61.6Z"/><path class="cls-1" d="M522.79,61.81c-1-3-1.61-6.43-1.61-12.16s.5-9.14,1.51-12.16c2.71-8.34,9.64-13,18.79-13,9.45,0,16.28,4.62,18.89,12.86A35.35,35.35,0,0,1,562,49.05a3.08,3.08,0,0,1-3.32,3.21H530.43a.54.54,0,0,0-.61.61,17.61,17.61,0,0,0,.81,5.83c1.8,5.52,6.23,8.34,12.16,8.34,4.72,0,7.93-1.41,11.55-4.12a4.57,4.57,0,0,1,2.92-1.21,3.43,3.43,0,0,1,3.51,3.52,4.18,4.18,0,0,1-1.3,3,24.82,24.82,0,0,1-17.29,6.64C532.23,74.88,525.5,70.25,522.79,61.81Zm29.94-16.28a.53.53,0,0,0,.61-.6,16.75,16.75,0,0,0-.71-5.43C551,34.68,547,32,541.58,32s-9.45,2.72-11.05,7.54a16.75,16.75,0,0,0-.71,5.43.53.53,0,0,0,.61.6Z"/><path class="cls-1" d="M582.78,69.05,568.21,31.26a5.6,5.6,0,0,1-.4-2.11,3.93,3.93,0,0,1,4.12-4,4.19,4.19,0,0,1,4,3l12.46,33.46h.2l12.16-33.46a4.2,4.2,0,0,1,4-3,3.93,3.93,0,0,1,4.12,4,5.6,5.6,0,0,1-.4,2.11L593.84,69.05c-1.51,3.92-2.81,5.22-5.53,5.22S584.29,73,582.78,69.05Z"/><path class="cls-1" d="M616.15,61.81c-1-3-1.61-6.43-1.61-12.16s.5-9.14,1.51-12.16c2.71-8.34,9.65-13,18.79-13,9.45,0,16.28,4.62,18.89,12.86a35.35,35.35,0,0,1,1.61,11.66A3.08,3.08,0,0,1,652,52.26H623.79a.54.54,0,0,0-.61.61A17.88,17.88,0,0,0,624,58.7c1.81,5.52,6.23,8.34,12.16,8.34,4.72,0,7.94-1.41,11.55-4.12a4.57,4.57,0,0,1,2.92-1.21,3.44,3.44,0,0,1,3.52,3.52,4.19,4.19,0,0,1-1.31,3,24.82,24.82,0,0,1-17.29,6.64C625.6,74.88,618.86,70.25,616.15,61.81Zm30-16.28a.53.53,0,0,0,.6-.6,17.05,17.05,0,0,0-.7-5.43c-1.61-4.82-5.63-7.54-11.06-7.54s-9.44,2.72-11.05,7.54a17,17,0,0,0-.71,5.43.54.54,0,0,0,.61.6Z"/><path class="cls-1" d="M664.69,69.55a4.19,4.19,0,0,1-2-3.52,3.84,3.84,0,0,1,3.92-3.82,5.25,5.25,0,0,1,2.81.91c3.92,2.31,8,4.22,13.47,4.22,6.93,0,10.55-3,10.55-7.24,0-4-1.81-6-9.44-6.83l-5-.5c-9.45-1-14.37-5.83-14.37-13.57,0-9.14,6.53-14.67,17.79-14.67a29.48,29.48,0,0,1,14.37,3.52c1.71.9,2.51,2,2.51,3.51a3.61,3.61,0,0,1-3.62,3.62,7.08,7.08,0,0,1-3-.8A25.17,25.17,0,0,0,682,31.86c-6,0-9.15,2.72-9.15,6.64S675,44.32,682.28,45l5,.5c10.05,1.11,14.47,5.83,14.47,13.67,0,9.45-6.83,15.68-19.59,15.68A30.9,30.9,0,0,1,664.69,69.55Z"/></g></g></g></svg>