<svg width="20" height="20" viewBox="0 0 20 20" fill="none" xmlns="http://www.w3.org/2000/svg"><path fill-rule="evenodd" clip-rule="evenodd" d="M19.8709 4.15938C19.1448 4.4764 18.3638 4.69078 17.5445 4.78735C18.381 4.2936 19.0233 3.51258 19.3256 2.58155C18.5433 3.03826 17.6759 3.36986 16.7536 3.54902C16.0145 2.77408 14.962 2.29004 13.7972 2.29004C11.5603 2.29004 9.7471 4.07496 9.7471 6.27711C9.7471 6.58928 9.78288 6.89354 9.85198 7.18567C6.48539 7.01926 3.50129 5.43172 1.50367 3.01943C1.15511 3.60854 0.955221 4.2936 0.955221 5.02421C0.955221 6.40708 1.67024 7.6278 2.75666 8.34262C2.09284 8.32197 1.46851 8.14281 0.922523 7.844C0.921906 7.86101 0.921906 7.87741 0.921906 7.89441C0.921906 9.8263 2.31802 11.4375 4.17128 11.8037C3.83135 11.8948 3.47353 11.9434 3.10399 11.9434C2.84303 11.9434 2.58947 11.9185 2.34208 11.8724C2.85722 13.4563 4.35327 14.609 6.12572 14.6412C4.73947 15.7107 2.99294 16.3477 1.09526 16.3477C0.768291 16.3477 0.446253 16.3289 0.12915 16.2925C1.92133 17.4233 4.05036 18.0835 6.33794 18.0835C13.788 18.0835 17.8616 12.0078 17.8616 6.73928C17.8616 6.5662 17.8579 6.39432 17.8499 6.22306C18.6414 5.66129 19.328 4.95922 19.8709 4.15938Z" fill="#4b4b4b"/></svg>